<mxfile host="app.diagrams.net" modified="2023-03-10T03:35:51.966Z" agent="5.0 (X11; Ubuntu)" etag="J0QC3gmtxHmZD2QA1CEW" version="21.0.6" type="github">
  <diagram name="Page-1" id="baod2YbWqUGKOtKm7SYT">
    <mxGraphModel dx="1221" dy="702" grid="1" gridSize="10" guides="1" tooltips="1" connect="1" arrows="1" fold="1" page="1" pageScale="1" pageWidth="850" pageHeight="1100" math="0" shadow="0">
      <root>
        <mxCell id="0" />
        <mxCell id="1" parent="0" />
        <mxCell id="-IHdya4t79_MKVama7wa-3" value="" style="edgeStyle=orthogonalEdgeStyle;rounded=0;orthogonalLoop=1;jettySize=auto;html=1;" edge="1" parent="1" source="-IHdya4t79_MKVama7wa-1" target="-IHdya4t79_MKVama7wa-2">
          <mxGeometry relative="1" as="geometry" />
        </mxCell>
        <mxCell id="-IHdya4t79_MKVama7wa-1" value="&lt;font style=&quot;font-size: 13px;&quot;&gt;&lt;font style=&quot;font-size: 14px;&quot;&gt;&lt;font style=&quot;font-size: 15px;&quot;&gt;&lt;font style=&quot;font-size: 16px;&quot;&gt;&lt;font style=&quot;font-size: 17px;&quot;&gt;&lt;font style=&quot;font-size: 18px;&quot;&gt;&lt;font style=&quot;font-size: 19px;&quot;&gt;&lt;font style=&quot;font-size: 20px;&quot;&gt;&lt;b&gt;Initialize payment&lt;/b&gt;&lt;/font&gt;&lt;/font&gt;&lt;/font&gt;&lt;/font&gt;&lt;/font&gt;&lt;/font&gt;&lt;/font&gt;&lt;/font&gt;&lt;br&gt;&lt;br&gt;POST request to `https://api.honkio.com/paymentspaymentinitialize&lt;br&gt;&lt;br&gt;Payer makes a request using `merchant_id` and `merchant_api_key`" style="rounded=0;whiteSpace=wrap;html=1;" vertex="1" parent="1">
          <mxGeometry x="40" y="40" width="240" height="120" as="geometry" />
        </mxCell>
        <mxCell id="-IHdya4t79_MKVama7wa-2" value="" style="whiteSpace=wrap;html=1;rounded=0;" vertex="1" parent="1">
          <mxGeometry x="420" y="70" width="120" height="60" as="geometry" />
        </mxCell>
      </root>
    </mxGraphModel>
  </diagram>
</mxfile>
